<?xml version="1.0" standalone="no"?>
<!DOCTYPE svg PUBLIC "-//W3C//DTD SVG 20010904//EN"
 "http://www.w3.org/TR/2001/REC-SVG-20010904/DTD/svg10.dtd">
<svg version="1.0" xmlns="http://www.w3.org/2000/svg"
 width="1024.000000pt" height="1024.000000pt" viewBox="0 0 1024.000000 1024.000000"
 preserveAspectRatio="xMidYMid meet">

<g transform="translate(0.000000,1024.000000) scale(0.100000,-0.100000)"
fill="#000000" stroke="none">
<path d="M5201 8815 c-328 -72 -584 -274 -736 -583 -41 -83 -47 -90 -89 -106
-24 -9 -75 -37 -112 -61 -48 -31 -71 -40 -76 -32 -4 7 -17 41 -29 77 -76 237
-228 422 -423 516 -209 101 -463 81 -704 -54 -179 -100 -390 -280 -579 -495
-294 -332 -417 -564 -417 -783 0 -80 4 -98 31 -155 43 -90 92 -142 171 -181
61 -30 74 -33 162 -33 94 1 97 1 221 57 69 31 152 63 185 71 61 16 314 51 320
44 2 -2 -1 -28 -6 -58 -6 -29 -13 -133 -16 -229 -7 -200 6 -325 56 -519 77
-297 266 -608 475 -783 61 -51 180 -132 274 -186 11 -6 9 -43 -13 -217 -14
-116 -42 -335 -61 -488 -25 -200 -32 -284 -25 -298 23 -42 105 -32 114 13 6
24 20 138 82 633 20 160 40 294 44 298 4 5 41 2 82 -6 40 -9 112 -19 158 -22
l86 -7 -7 -72 c-4 -39 -17 -241 -30 -449 -16 -270 -20 -383 -13 -395 14 -21
73 -27 97 -10 20 15 17 -23 52 543 14 214 28 392 33 395 4 4 39 13 77 20 80
15 177 46 263 85 l60 27 48 -37 c64 -49 185 -109 292 -145 296 -99 681 -76
950 57 l93 46 87 -41 c48 -23 118 -51 156 -63 l68 -21 -6 -39 c-6 -38 -100
-400 -156 -599 -44 -157 -50 -196 -33 -220 14 -21 66 -27 90 -12 7 4 40 111
73 237 34 127 81 302 105 390 24 88 46 175 50 193 l7 32 121 0 c67 0 140 5
162 10 22 5 41 7 43 5 5 -5 10 -55 56 -503 37 -360 40 -372 96 -372 15 0 35 9
44 19 19 21 18 48 -14 331 -5 47 -19 184 -30 305 -12 121 -23 227 -26 236 -3
13 17 27 82 60 106 52 218 139 279 217 40 50 90 141 123 223 7 18 35 40 84 67
266 146 428 417 428 718 0 202 -65 358 -209 500 l-59 59 19 80 c23 99 25 266
4 350 -8 33 -34 98 -57 145 -33 69 -57 101 -127 170 -116 116 -252 186 -422
220 l-55 11 -12 72 c-41 240 -212 464 -444 579 -250 124 -549 129 -781 13
l-69 -34 -46 36 c-70 54 -195 110 -306 138 -81 20 -121 25 -225 24 -69 0 -155
-7 -190 -14z m407 -144 c118 -34 198 -79 282 -158 119 -112 174 -235 173 -389
-2 -255 -154 -457 -389 -518 -34 -9 -74 -16 -88 -16 -30 0 -66 -32 -66 -59 0
-10 9 -29 19 -42 17 -21 27 -24 83 -22 78 2 203 46 282 98 122 81 224 224 265
375 51 182 6 461 -91 567 l-20 21 24 16 c50 33 182 68 275 73 273 17 536 -109
680 -325 57 -85 104 -218 110 -314 3 -43 11 -82 17 -86 6 -5 48 -14 93 -21
215 -31 396 -142 496 -303 28 -44 66 -169 73 -239 10 -96 -11 -207 -60 -321
l-16 -37 56 -36 c137 -88 229 -243 249 -421 11 -97 -17 -231 -69 -339 -71
-146 -171 -247 -329 -330 -83 -45 -86 -47 -103 -98 -49 -154 -154 -285 -289
-365 -267 -157 -669 -143 -912 31 -50 35 -70 33 -154 -19 -74 -46 -184 -88
-289 -111 -66 -14 -127 -18 -270 -17 -169 0 -194 2 -285 27 -127 35 -248 92
-352 168 -45 32 -86 59 -92 59 -6 0 -52 -20 -101 -45 -349 -175 -730 -142
-1036 91 -255 194 -434 491 -515 856 -30 134 -38 433 -15 584 10 60 19 116 22
124 2 8 25 23 52 32 113 41 232 144 302 265 l35 60 61 -43 c152 -103 362 -138
546 -90 74 20 140 51 174 82 24 23 26 29 19 81 -13 106 -67 250 -133 353 -23
36 -31 59 -26 68 10 15 64 45 164 91 l65 30 58 118 c142 291 364 456 697 517
61 11 257 -3 328 -23z m-2034 -126 c128 -34 265 -127 336 -230 34 -49 113
-205 108 -211 -2 -2 -26 3 -53 11 -27 9 -85 18 -129 21 -70 6 -84 4 -103 -12
-57 -49 -29 -114 50 -114 250 -1 437 -147 516 -404 12 -37 21 -74 21 -82 0 -8
-28 -22 -67 -34 -196 -61 -383 -18 -543 126 -39 35 -78 64 -86 64 -34 0 -53
-22 -69 -77 -42 -146 -128 -247 -267 -313 -105 -50 -174 -68 -318 -81 -155
-14 -224 -31 -360 -89 -63 -27 -134 -53 -158 -59 -50 -11 -154 1 -180 20 -38
29 -72 63 -72 73 0 6 37 30 83 53 114 59 150 91 150 133 0 34 -23 60 -53 60
-8 0 -60 -27 -115 -59 l-100 -60 -3 30 c-8 72 64 255 149 381 188 278 535 622
757 749 185 106 360 142 506 104z"/>
<path d="M5361 8141 c-43 -54 -102 -86 -207 -112 -267 -66 -424 -244 -424
-482 0 -46 23 -149 44 -198 6 -14 -6 -20 -69 -34 -232 -51 -405 -244 -405
-451 l0 -54 -93 0 c-138 0 -229 -32 -335 -117 -44 -36 -104 -119 -135 -187
-38 -83 -40 -250 -3 -353 20 -58 74 -140 126 -190 47 -48 85 -56 113 -25 30
33 21 68 -34 128 -79 88 -104 150 -104 259 0 79 4 97 29 149 52 107 154 183
275 206 83 16 147 3 191 -37 42 -37 77 -42 110 -15 l22 18 -22 88 c-34 135 -8
242 80 339 57 63 123 101 211 122 107 25 123 22 187 -36 104 -93 278 -159 416
-159 31 0 58 5 64 13 17 21 19 51 5 79 -11 23 -21 27 -70 33 -142 16 -234 53
-324 130 -177 151 -201 380 -55 529 65 67 123 96 255 129 160 40 254 108 268
191 4 26 0 39 -16 55 -33 33 -65 27 -100 -18z"/>
<path d="M6615 7925 c-17 -16 -25 -35 -25 -59 0 -58 -28 -172 -59 -240 -74
-164 -194 -265 -404 -341 -65 -23 -189 -107 -227 -153 -34 -41 -37 -67 -14
-100 28 -40 66 -29 144 42 185 170 474 194 651 54 125 -98 171 -269 113 -418
-44 -115 -156 -229 -254 -259 -70 -22 -90 -38 -90 -71 0 -68 81 -78 191 -23
134 67 250 208 288 351 14 50 18 180 7 238 l-7 41 60 12 c123 24 289 134 306
204 10 37 -17 77 -51 77 -15 0 -48 -19 -85 -50 -70 -59 -138 -95 -211 -114
l-51 -13 -76 76 c-88 88 -168 133 -274 152 -53 10 -66 15 -55 23 29 22 109
129 135 179 47 93 73 188 80 283 5 84 4 93 -16 113 -27 27 -46 27 -76 -4z"/>
<path d="M5855 6651 c-146 -42 -262 -139 -388 -324 -89 -132 -155 -193 -245
-227 -71 -27 -118 -25 -180 6 -60 30 -87 63 -101 124 -20 90 10 164 112 276
58 64 64 105 17 129 -27 14 -33 14 -58 1 -40 -21 -136 -141 -169 -212 -23 -49
-28 -73 -28 -139 0 -44 4 -93 8 -108 7 -26 5 -29 -40 -49 -28 -12 -77 -23
-118 -26 -58 -3 -82 0 -138 22 -74 28 -96 25 -118 -15 -20 -38 -3 -68 54 -94
115 -53 249 -53 380 0 l59 24 55 -31 c112 -63 226 -67 347 -10 100 47 174 117
263 249 142 208 247 282 414 291 62 3 102 0 143 -12 52 -15 60 -16 81 -2 59
39 33 100 -56 128 -72 22 -215 22 -294 -1z"/>
<path d="M7412 6593 c-11 -10 -25 -44 -32 -77 -37 -175 -149 -304 -310 -356
-62 -20 -84 -22 -168 -17 -53 4 -102 3 -108 -1 -39 -26 -36 -90 7 -112 33 -18
170 -24 241 -11 35 7 101 30 147 53 158 75 284 243 312 415 10 63 10 75 -5 98
-19 30 -55 33 -84 8z"/>
<path d="M6328 5972 c-9 -2 -38 -32 -62 -67 -56 -77 -121 -126 -206 -155 -87
-29 -242 -25 -342 10 -66 23 -68 23 -88 5 -13 -12 -20 -31 -20 -56 0 -33 5
-41 31 -54 98 -51 302 -70 423 -39 136 35 273 141 323 250 23 50 24 57 10 78
-17 25 -41 34 -69 28z"/>
<path d="M3075 8147 c-78 -26 -134 -67 -161 -119 -31 -60 -14 -78 78 -78 94 0
209 64 243 136 14 30 15 38 4 49 -21 20 -118 27 -164 12z"/>
<path d="M3961 3915 c-229 -52 -409 -232 -457 -457 -23 -104 -14 -250 19 -347
61 -173 194 -305 369 -362 63 -21 92 -24 213 -24 120 0 149 4 205 23 180 64
320 216 376 407 27 95 23 259 -10 361 -60 188 -200 326 -391 386 -81 26 -240
32 -324 13z m283 -94 c113 -55 202 -176 246 -331 25 -93 28 -255 5 -345 -49
-190 -173 -323 -330 -356 -54 -11 -68 -10 -139 10 -134 37 -210 100 -276 231
-86 171 -83 446 7 612 106 195 306 268 487 179z"/>
<path d="M2100 3866 c0 -21 6 -24 49 -30 62 -8 98 -42 106 -99 3 -23 5 -225 3
-449 -3 -394 -4 -407 -24 -435 -15 -20 -37 -32 -77 -43 -49 -12 -57 -17 -57
-38 l0 -24 353 5 c296 3 362 7 412 21 260 76 419 266 432 521 12 225 -102 418
-309 519 -139 69 -190 76 -569 76 l-319 0 0 -24z m692 -64 c216 -77 343 -340
298 -617 -14 -90 -70 -194 -135 -253 -77 -70 -144 -101 -251 -114 -112 -14
-190 -5 -229 27 l-30 23 -3 481 -3 480 58 3 c100 5 236 -9 295 -30z"/>
<path d="M4882 3868 c2 -19 12 -24 55 -31 68 -11 99 -45 108 -119 3 -29 5
-231 3 -449 -3 -380 -4 -398 -23 -419 -25 -28 -75 -50 -115 -50 -25 0 -30 -4
-30 -25 l0 -25 458 0 459 0 11 53 c26 120 44 237 39 252 -11 27 -25 16 -50
-39 -32 -70 -89 -131 -151 -164 -49 -26 -57 -27 -208 -27 -150 0 -158 1 -180
23 l-23 23 -3 442 c-1 341 1 448 11 467 15 31 71 60 115 60 27 0 32 3 32 25
l0 25 -256 0 -255 0 3 -22z"/>
<path d="M6010 3865 c0 -22 4 -25 38 -25 56 0 105 -29 119 -70 8 -25 12 -159
12 -462 l1 -428 -28 -31 c-20 -22 -43 -34 -82 -43 -44 -10 -56 -17 -58 -34
l-3 -22 459 0 460 0 26 138 c14 76 26 148 26 161 0 37 -22 20 -58 -45 -43 -76
-85 -119 -147 -152 -45 -24 -62 -27 -186 -30 -151 -4 -191 6 -209 54 -16 40
-13 873 3 904 16 32 72 60 120 60 33 0 37 3 37 25 l0 25 -265 0 -265 0 0 -25z"/>
<path d="M6990 3865 c0 -21 5 -25 28 -25 36 -1 102 -32 128 -61 23 -26 82
-118 245 -384 l104 -170 3 -170 c2 -123 -1 -177 -10 -195 -16 -31 -72 -60
-115 -60 -28 0 -33 -3 -33 -25 l0 -25 250 0 250 0 0 24 c0 21 -6 24 -52 29
-42 5 -59 13 -80 37 l-28 30 0 182 0 182 67 111 c290 480 293 484 367 492 40
5 46 9 46 29 l0 24 -185 0 -185 0 0 -24 c0 -20 6 -24 45 -28 25 -3 52 -11 60
-18 21 -18 19 -64 -6 -113 -25 -49 -241 -399 -244 -395 -11 13 -235 385 -257
427 -25 48 -27 57 -14 75 10 16 27 22 67 26 47 4 54 8 57 28 l3 22 -255 0
-256 0 0 -25z"/>
<path d="M2216 2310 c-80 -40 -116 -97 -116 -185 0 -106 42 -154 204 -234 105
-52 136 -85 136 -148 0 -94 -58 -148 -156 -145 -78 3 -127 41 -164 125 -33 73
-44 61 -36 -40 3 -48 8 -89 10 -91 11 -10 154 -42 191 -42 147 0 254 96 255
228 0 105 -36 146 -209 236 -129 68 -155 96 -147 159 11 92 131 147 212 98 19
-12 42 -41 59 -75 15 -31 32 -56 37 -56 5 0 8 37 6 82 l-3 82 -60 13 c-90 18
-173 16 -219 -7z"/>
<path d="M4653 2313 c-34 -94 -222 -572 -243 -620 -28 -60 -64 -93 -105 -93
-8 0 -15 -7 -15 -15 0 -12 19 -15 115 -15 88 0 115 3 115 13 0 7 -16 19 -35
26 -44 16 -44 30 -1 141 l33 85 124 0 124 0 33 -80 c40 -101 39 -136 -5 -149
-18 -6 -35 -16 -37 -23 -4 -10 25 -13 144 -13 116 0 150 3 150 13 0 7 -16 19
-35 26 -44 16 -49 24 -169 331 -53 135 -110 278 -128 318 -30 71 -52 89 -65
55z m42 -293 c27 -66 46 -122 43 -125 -3 -3 -48 -4 -101 -3 l-95 3 46 123 c26
67 49 122 53 122 3 0 27 -54 54 -120z"/>
<path d="M6890 2312 c-30 -10 -69 -26 -86 -35 -53 -27 -121 -104 -156 -175
-31 -62 -33 -74 -33 -167 0 -89 4 -107 29 -162 92 -200 348 -277 603 -181 l53
19 1 97 c1 127 6 143 53 166 22 11 34 22 28 28 -14 14 -275 6 -280 -10 -2 -7
9 -15 27 -18 45 -9 61 -38 61 -110 0 -93 -9 -124 -42 -144 -87 -53 -246 -21
-321 65 -37 43 -68 118 -79 195 -26 175 42 324 176 386 133 62 294 -4 346
-141 20 -52 30 -25 30 79 l0 104 -62 6 c-178 17 -292 17 -348 -2z"/>
<path d="M2676 2308 c-9 -30 -14 -155 -6 -167 5 -10 14 -1 28 30 33 75 60 92
152 97 l80 5 1 -34 c1 -19 1 -160 0 -314 l-1 -280 -26 -22 c-14 -13 -36 -23
-50 -23 -15 0 -24 -6 -24 -15 0 -13 24 -15 160 -15 136 0 160 2 160 15 0 9 -9
15 -25 15 -14 0 -37 11 -50 25 l-25 24 0 312 0 311 79 -3 c95 -5 124 -22 160
-93 33 -67 45 -48 36 58 l-7 86 -319 0 c-247 0 -321 -3 -323 -12z"/>
<path d="M3488 2314 c-15 -15 -8 -34 12 -34 12 0 32 -11 45 -25 l25 -24 0
-295 0 -295 -26 -20 c-15 -12 -35 -21 -45 -21 -11 0 -19 -7 -19 -15 0 -13 24
-15 155 -15 126 0 155 3 155 14 0 8 -15 17 -35 20 -57 11 -65 33 -65 179 l0
128 41 -3 42 -3 91 -142 c131 -204 118 -193 226 -193 95 0 113 10 57 33 -18 8
-47 31 -65 51 -35 41 -196 276 -190 280 2 2 24 13 51 25 67 32 100 79 105 150
7 95 -35 157 -128 191 -40 14 -420 27 -432 14z m373 -66 c21 -12 45 -36 54
-54 34 -72 7 -186 -52 -213 -15 -8 -61 -17 -100 -20 l-73 -7 0 158 0 158 66 0
c49 0 76 -6 105 -22z"/>
<path d="M5067 2313 c-11 -19 -12 -176 -1 -180 7 -2 15 9 19 24 19 78 85 117
188 111 l52 -3 3 -312 2 -311 -26 -21 c-15 -12 -35 -21 -45 -21 -11 0 -19 -7
-19 -15 0 -13 24 -15 156 -15 115 0 155 3 152 12 -2 6 -19 17 -37 23 -61 20
-61 18 -61 358 l0 310 80 -5 c95 -6 123 -21 159 -92 13 -26 27 -43 30 -39 4 4
5 47 3 96 l-3 87 -324 0 c-178 0 -326 -3 -328 -7z"/>
<path d="M5883 2313 c-23 -9 -14 -33 12 -33 14 0 37 -11 50 -25 l25 -24 0
-295 0 -295 -26 -20 c-15 -12 -35 -21 -45 -21 -11 0 -19 -7 -19 -15 0 -13 37
-15 292 -13 l291 3 19 75 c26 107 21 121 -22 63 -52 -72 -103 -93 -223 -94
-74 -1 -103 3 -122 15 -25 16 -25 18 -25 155 l0 139 26 6 c35 9 113 -3 142
-21 13 -8 30 -30 38 -49 8 -19 19 -32 24 -29 13 8 13 225 0 225 -5 0 -10 -5
-10 -10 0 -6 -11 -22 -25 -35 -22 -23 -32 -25 -110 -25 l-85 0 0 141 0 141
108 -3 c125 -5 148 -15 190 -85 15 -24 30 -44 34 -44 7 0 1 141 -8 168 -2 9
-63 12 -261 11 -142 0 -264 -3 -270 -6z"/>
<path d="M7455 2310 c-10 -16 3 -27 39 -34 49 -9 79 -45 184 -223 l92 -157 0
-124 c0 -68 -5 -132 -10 -142 -6 -11 -26 -22 -44 -26 -19 -3 -37 -12 -40 -20
-4 -12 21 -14 149 -14 125 0 155 3 155 14 0 7 -14 16 -32 20 -56 11 -58 16
-58 171 l0 142 85 142 c110 185 122 201 161 217 69 29 28 46 -105 43 -47 -1
-89 -3 -93 -6 -15 -8 5 -33 28 -33 14 0 30 -10 39 -24 15 -22 15 -27 0 -58
-30 -57 -137 -228 -143 -228 -8 1 -135 204 -159 256 -15 31 -15 36 -3 44 8 6
27 10 43 10 20 0 27 5 27 20 0 19 -7 20 -154 20 -93 0 -157 -4 -161 -10z"/>
</g>
</svg>
